<svg width="454" height="39" viewBox="0 0 454 39" fill="none" xmlns="http://www.w3.org/2000/svg">
<path d="M15.212 31L25.196 8.6H30.316L40.332 31H34.892L26.7 11.224H28.748L20.524 31H15.212ZM20.204 26.2L21.58 22.264H33.1L34.508 26.2H20.204ZM42.656 31V8.6H52.832C55.264 8.6 57.408 9.06933 59.264 10.008C61.12 10.9253 62.5707 12.216 63.616 13.88C64.6613 15.544 65.184 17.5173 65.184 19.8C65.184 22.0613 64.6613 24.0347 63.616 25.72C62.5707 27.384 61.12 28.6853 59.264 29.624C57.408 30.5413 55.264 31 52.832 31H42.656ZM47.84 26.744H52.576C54.0693 26.744 55.36 26.4667 56.448 25.912C57.5573 25.336 58.4107 24.5253 59.008 23.48C59.6267 22.4347 59.936 21.208 59.936 19.8C59.936 18.3707 59.6267 17.144 59.008 16.12C58.4107 15.0747 57.5573 14.2747 56.448 13.72C55.36 13.144 54.0693 12.856 52.576 12.856H47.84V26.744ZM69.0935 31V8.6H74.2775V31H69.0935ZM90.3135 31.384C88.5855 31.384 86.9748 31.1067 85.4815 30.552C84.0095 29.976 82.7295 29.1653 81.6415 28.12C80.5535 27.0747 79.7002 25.848 79.0815 24.44C78.4842 23.032 78.1855 21.4853 78.1855 19.8C78.1855 18.1147 78.4842 16.568 79.0815 15.16C79.7002 13.752 80.5535 12.5253 81.6415 11.48C82.7508 10.4347 84.0415 9.63467 85.5135 9.08C86.9855 8.504 88.5962 8.216 90.3455 8.216C92.2868 8.216 94.0362 8.55733 95.5935 9.24C97.1722 9.90133 98.4948 10.8827 99.5615 12.184L96.2335 15.256C95.4655 14.3813 94.6122 13.7307 93.6735 13.304C92.7348 12.856 91.7108 12.632 90.6015 12.632C89.5562 12.632 88.5962 12.8027 87.7215 13.144C86.8468 13.4853 86.0895 13.976 85.4495 14.616C84.8095 15.256 84.3082 16.0133 83.9455 16.888C83.6042 17.7627 83.4335 18.7333 83.4335 19.8C83.4335 20.8667 83.6042 21.8373 83.9455 22.712C84.3082 23.5867 84.8095 24.344 85.4495 24.984C86.0895 25.624 86.8468 26.1147 87.7215 26.456C88.5962 26.7973 89.5562 26.968 90.6015 26.968C91.7108 26.968 92.7348 26.7547 93.6735 26.328C94.6122 25.88 95.4655 25.208 96.2335 24.312L99.5615 27.384C98.4948 28.6853 97.1722 29.6773 95.5935 30.36C94.0362 31.0427 92.2762 31.384 90.3135 31.384ZM103.062 31V8.6H108.246V31H103.062ZM124.442 31.384C122.672 31.384 121.029 31.096 119.514 30.52C118.021 29.944 116.72 29.1333 115.61 28.088C114.522 27.0427 113.669 25.816 113.05 24.408C112.453 23 112.154 21.464 112.154 19.8C112.154 18.136 112.453 16.6 113.05 15.192C113.669 13.784 114.533 12.5573 115.642 11.512C116.752 10.4667 118.053 9.656 119.546 9.08C121.04 8.504 122.661 8.216 124.41 8.216C126.181 8.216 127.802 8.504 129.274 9.08C130.768 9.656 132.058 10.4667 133.146 11.512C134.256 12.5573 135.12 13.784 135.738 15.192C136.357 16.5787 136.666 18.1147 136.666 19.8C136.666 21.464 136.357 23.0107 135.738 24.44C135.12 25.848 134.256 27.0747 133.146 28.12C132.058 29.144 130.768 29.944 129.274 30.52C127.802 31.096 126.192 31.384 124.442 31.384ZM124.41 26.968C125.413 26.968 126.33 26.7973 127.162 26.456C128.016 26.1147 128.762 25.624 129.402 24.984C130.042 24.344 130.533 23.5867 130.874 22.712C131.237 21.8373 131.418 20.8667 131.418 19.8C131.418 18.7333 131.237 17.7627 130.874 16.888C130.533 16.0133 130.042 15.256 129.402 14.616C128.784 13.976 128.048 13.4853 127.194 13.144C126.341 12.8027 125.413 12.632 124.41 12.632C123.408 12.632 122.48 12.8027 121.626 13.144C120.794 13.4853 120.058 13.976 119.418 14.616C118.778 15.256 118.277 16.0133 117.914 16.888C117.573 17.7627 117.402 18.7333 117.402 19.8C117.402 20.8453 117.573 21.816 117.914 22.712C118.277 23.5867 118.768 24.344 119.386 24.984C120.026 25.624 120.773 26.1147 121.626 26.456C122.48 26.7973 123.408 26.968 124.41 26.968ZM140.562 31V8.6H144.85L158.066 24.728H155.986V8.6H161.106V31H156.85L143.602 14.872H145.682V31H140.562ZM163.462 31L173.446 8.6H178.566L188.582 31H183.142L174.95 11.224H176.998L168.774 31H163.462ZM168.454 26.2L169.83 22.264H181.35L182.758 26.2H168.454ZM190.906 31V8.6H195.194L208.41 24.728H206.33V8.6H211.45V31H207.194L193.946 14.872H196.026V31H190.906ZM216.75 31V8.6H226.926C229.358 8.6 231.502 9.06933 233.358 10.008C235.214 10.9253 236.664 12.216 237.71 13.88C238.755 15.544 239.278 17.5173 239.278 19.8C239.278 22.0613 238.755 24.0347 237.71 25.72C236.664 27.384 235.214 28.6853 233.358 29.624C231.502 30.5413 229.358 31 226.926 31H216.75ZM221.934 26.744H226.67C228.163 26.744 229.454 26.4667 230.542 25.912C231.651 25.336 232.504 24.5253 233.102 23.48C233.72 22.4347 234.03 21.208 234.03 19.8C234.03 18.3707 233.72 17.144 233.102 16.12C232.504 15.0747 231.651 14.2747 230.542 13.72C229.454 13.144 228.163 12.856 226.67 12.856H221.934V26.744ZM254.067 31.384C252.297 31.384 250.654 31.096 249.139 30.52C247.646 29.944 246.345 29.1333 245.235 28.088C244.147 27.0427 243.294 25.816 242.675 24.408C242.078 23 241.779 21.464 241.779 19.8C241.779 18.136 242.078 16.6 242.675 15.192C243.294 13.784 244.158 12.5573 245.267 11.512C246.377 10.4667 247.678 9.656 249.171 9.08C250.665 8.504 252.286 8.216 254.035 8.216C255.806 8.216 257.427 8.504 258.899 9.08C260.393 9.656 261.683 10.4667 262.771 11.512C263.881 12.5573 264.745 13.784 265.363 15.192C265.982 16.5787 266.291 18.1147 266.291 19.8C266.291 21.464 265.982 23.0107 265.363 24.44C264.745 25.848 263.881 27.0747 262.771 28.12C261.683 29.144 260.393 29.944 258.899 30.52C257.427 31.096 255.817 31.384 254.067 31.384ZM254.035 26.968C255.038 26.968 255.955 26.7973 256.787 26.456C257.641 26.1147 258.387 25.624 259.027 24.984C259.667 24.344 260.158 23.5867 260.499 22.712C260.862 21.8373 261.043 20.8667 261.043 19.8C261.043 18.7333 260.862 17.7627 260.499 16.888C260.158 16.0133 259.667 15.256 259.027 14.616C258.409 13.976 257.673 13.4853 256.819 13.144C255.966 12.8027 255.038 12.632 254.035 12.632C253.033 12.632 252.105 12.8027 251.251 13.144C250.419 13.4853 249.683 13.976 249.043 14.616C248.403 15.256 247.902 16.0133 247.539 16.888C247.198 17.7627 247.027 18.7333 247.027 19.8C247.027 20.8453 247.198 21.816 247.539 22.712C247.902 23.5867 248.393 24.344 249.011 24.984C249.651 25.624 250.398 26.1147 251.251 26.456C252.105 26.7973 253.033 26.968 254.035 26.968ZM289.202 31.384C286.023 31.384 283.538 30.4987 281.746 28.728C279.954 26.9573 279.058 24.4293 279.058 21.144V8.6H284.242V20.952C284.242 23.0853 284.679 24.6213 285.554 25.56C286.428 26.4987 287.655 26.968 289.234 26.968C290.812 26.968 292.039 26.4987 292.914 25.56C293.788 24.6213 294.226 23.0853 294.226 20.952V8.6H299.346V21.144C299.346 24.4293 298.45 26.9573 296.658 28.728C294.866 30.4987 292.38 31.384 289.202 31.384ZM311.829 31.384C310.037 31.384 308.319 31.1493 306.677 30.68C305.034 30.1893 303.711 29.56 302.709 28.792L304.469 24.888C305.429 25.5707 306.559 26.136 307.861 26.584C309.183 27.0107 310.517 27.224 311.861 27.224C312.885 27.224 313.706 27.128 314.325 26.936C314.965 26.7227 315.434 26.4347 315.733 26.072C316.031 25.7093 316.181 25.2933 316.181 24.824C316.181 24.2267 315.946 23.7573 315.477 23.416C315.007 23.0533 314.389 22.7653 313.621 22.552C312.853 22.3173 311.999 22.104 311.061 21.912C310.143 21.6987 309.215 21.4427 308.277 21.144C307.359 20.8453 306.517 20.4613 305.749 19.992C304.981 19.5227 304.351 18.904 303.861 18.136C303.391 17.368 303.157 16.3867 303.157 15.192C303.157 13.912 303.498 12.7493 304.181 11.704C304.885 10.6373 305.93 9.79467 307.317 9.176C308.725 8.536 310.485 8.216 312.597 8.216C314.005 8.216 315.391 8.38667 316.757 8.728C318.122 9.048 319.327 9.53867 320.373 10.2L318.773 14.136C317.727 13.5387 316.682 13.1013 315.637 12.824C314.591 12.5253 313.567 12.376 312.565 12.376C311.562 12.376 310.741 12.4933 310.101 12.728C309.461 12.9627 309.002 13.272 308.725 13.656C308.447 14.0187 308.309 14.4453 308.309 14.936C308.309 15.512 308.543 15.9813 309.013 16.344C309.482 16.6853 310.101 16.9627 310.869 17.176C311.637 17.3893 312.479 17.6027 313.397 17.816C314.335 18.0293 315.263 18.2747 316.181 18.552C317.119 18.8293 317.973 19.2027 318.741 19.672C319.509 20.1413 320.127 20.76 320.597 21.528C321.087 22.296 321.333 23.2667 321.333 24.44C321.333 25.6987 320.981 26.8507 320.277 27.896C319.573 28.9413 318.517 29.784 317.109 30.424C315.722 31.064 313.962 31.384 311.829 31.384ZM334.827 31.384C331.648 31.384 329.163 30.4987 327.371 28.728C325.579 26.9573 324.683 24.4293 324.683 21.144V8.6H329.867V20.952C329.867 23.0853 330.304 24.6213 331.179 25.56C332.053 26.4987 333.28 26.968 334.859 26.968C336.437 26.968 337.664 26.4987 338.539 25.56C339.413 24.6213 339.851 23.0853 339.851 20.952V8.6H344.971V21.144C344.971 24.4293 344.075 26.9573 342.283 28.728C340.491 30.4987 338.005 31.384 334.827 31.384ZM346.681 31L356.665 8.6H361.785L371.801 31H366.361L358.169 11.224H360.217L351.993 31H346.681ZM351.673 26.2L353.049 22.264H364.569L365.977 26.2H351.673ZM356.313 6.776L360.633 2.168H366.009L360.217 6.776H356.313ZM374.125 31V8.6H383.821C385.826 8.6 387.554 8.93067 389.005 9.592C390.455 10.232 391.575 11.16 392.365 12.376C393.154 13.592 393.549 15.0427 393.549 16.728C393.549 18.392 393.154 19.832 392.365 21.048C391.575 22.2427 390.455 23.16 389.005 23.8C387.554 24.44 385.826 24.76 383.821 24.76H377.005L379.309 22.488V31H374.125ZM388.365 31L382.765 22.872H388.301L393.965 31H388.365ZM379.309 23.064L377.005 20.632H383.533C385.133 20.632 386.327 20.2907 387.117 19.608C387.906 18.904 388.301 17.944 388.301 16.728C388.301 15.4907 387.906 14.5307 387.117 13.848C386.327 13.1653 385.133 12.824 383.533 12.824H377.005L379.309 10.36V23.064ZM397.656 31V8.6H402.84V31H397.656ZM419.036 31.384C417.265 31.384 415.623 31.096 414.108 30.52C412.615 29.944 411.313 29.1333 410.204 28.088C409.116 27.0427 408.263 25.816 407.644 24.408C407.047 23 406.748 21.464 406.748 19.8C406.748 18.136 407.047 16.6 407.644 15.192C408.263 13.784 409.127 12.5573 410.236 11.512C411.345 10.4667 412.647 9.656 414.14 9.08C415.633 8.504 417.255 8.216 419.004 8.216C420.775 8.216 422.396 8.504 423.868 9.08C425.361 9.656 426.652 10.4667 427.74 11.512C428.849 12.5573 429.713 13.784 430.332 15.192C430.951 16.5787 431.26 18.1147 431.26 19.8C431.26 21.464 430.951 23.0107 430.332 24.44C429.713 25.848 428.849 27.0747 427.74 28.12C426.652 29.144 425.361 29.944 423.868 30.52C422.396 31.096 420.785 31.384 419.036 31.384ZM419.004 26.968C420.007 26.968 420.924 26.7973 421.756 26.456C422.609 26.1147 423.356 25.624 423.996 24.984C424.636 24.344 425.127 23.5867 425.468 22.712C425.831 21.8373 426.012 20.8667 426.012 19.8C426.012 18.7333 425.831 17.7627 425.468 16.888C425.127 16.0133 424.636 15.256 423.996 14.616C423.377 13.976 422.641 13.4853 421.788 13.144C420.935 12.8027 420.007 12.632 419.004 12.632C418.001 12.632 417.073 12.8027 416.22 13.144C415.388 13.4853 414.652 13.976 414.012 14.616C413.372 15.256 412.871 16.0133 412.508 16.888C412.167 17.7627 411.996 18.7333 411.996 19.8C411.996 20.8453 412.167 21.816 412.508 22.712C412.871 23.5867 413.361 24.344 413.98 24.984C414.62 25.624 415.367 26.1147 416.22 26.456C417.073 26.7973 418.001 26.968 419.004 26.968ZM442.516 31.384C440.724 31.384 439.007 31.1493 437.364 30.68C435.721 30.1893 434.399 29.56 433.396 28.792L435.156 24.888C436.116 25.5707 437.247 26.136 438.548 26.584C439.871 27.0107 441.204 27.224 442.548 27.224C443.572 27.224 444.393 27.128 445.012 26.936C445.652 26.7227 446.121 26.4347 446.42 26.072C446.719 25.7093 446.868 25.2933 446.868 24.824C446.868 24.2267 446.633 23.7573 446.164 23.416C445.695 23.0533 445.076 22.7653 444.308 22.552C443.54 22.3173 442.687 22.104 441.748 21.912C440.831 21.6987 439.903 21.4427 438.964 21.144C438.047 20.8453 437.204 20.4613 436.436 19.992C435.668 19.5227 435.039 18.904 434.548 18.136C434.079 17.368 433.844 16.3867 433.844 15.192C433.844 13.912 434.185 12.7493 434.868 11.704C435.572 10.6373 436.617 9.79467 438.004 9.176C439.412 8.536 441.172 8.216 443.284 8.216C444.692 8.216 446.079 8.38667 447.444 8.728C448.809 9.048 450.015 9.53867 451.06 10.2L449.46 14.136C448.415 13.5387 447.369 13.1013 446.324 12.824C445.279 12.5253 444.255 12.376 443.252 12.376C442.249 12.376 441.428 12.4933 440.788 12.728C440.148 12.9627 439.689 13.272 439.412 13.656C439.135 14.0187 438.996 14.4453 438.996 14.936C438.996 15.512 439.231 15.9813 439.7 16.344C440.169 16.6853 440.788 16.9627 441.556 17.176C442.324 17.3893 443.167 17.6027 444.084 17.816C445.023 18.0293 445.951 18.2747 446.868 18.552C447.807 18.8293 448.66 19.2027 449.428 19.672C450.196 20.1413 450.815 20.76 451.284 21.528C451.775 22.296 452.02 23.2667 452.02 24.44C452.02 25.6987 451.668 26.8507 450.964 27.896C450.26 28.9413 449.204 29.784 447.796 30.424C446.409 31.064 444.649 31.384 442.516 31.384Z" fill="black"/>
<path d="M3 0L3 39" stroke="#F8D442" stroke-width="6"/>
</svg>
